<?xml version="1.0" encoding="UTF-8" standalone="no"?>
<!-- Created with Inkscape (http://www.inkscape.org/) -->

<svg
   xmlns:dc="http://purl.org/dc/elements/1.1/"
   xmlns:cc="http://creativecommons.org/ns#"
   xmlns:rdf="http://www.w3.org/1999/02/22-rdf-syntax-ns#"
   xmlns:svg="http://www.w3.org/2000/svg"
   xmlns="http://www.w3.org/2000/svg"
   xmlns:sodipodi="http://sodipodi.sourceforge.net/DTD/sodipodi-0.dtd"
   xmlns:inkscape="http://www.inkscape.org/namespaces/inkscape"
   width="512"
   height="512"
   viewBox="0 0 135.46666 135.46667"
   version="1.1"
   id="svg8"
   inkscape:version="0.92.3 (2405546, 2018-03-11)"
   sodipodi:docname="bannerhackclub.svg">
  <defs
     id="defs2" />
  <sodipodi:namedview
     id="base"
     pagecolor="#ffffff"
     bordercolor="#666666"
     borderopacity="1.0"
     inkscape:pageopacity="0.0"
     inkscape:pageshadow="2"
     inkscape:zoom="0.7"
     inkscape:cx="63.61008"
     inkscape:cy="209.17758"
     inkscape:document-units="px"
     inkscape:current-layer="layer1"
     showgrid="false"
     units="px"
     inkscape:window-width="1366"
     inkscape:window-height="704"
     inkscape:window-x="0"
     inkscape:window-y="27"
     inkscape:window-maximized="1"
     fit-margin-top="0"
     fit-margin-left="0"
     fit-margin-right="0"
     fit-margin-bottom="0" />
  <metadata
     id="metadata5">
    <rdf:RDF>
      <cc:Work
         rdf:about="">
        <dc:format>image/svg+xml</dc:format>
        <dc:type
           rdf:resource="http://purl.org/dc/dcmitype/StillImage" />
        <dc:title></dc:title>
      </cc:Work>
    </rdf:RDF>
  </metadata>
  <g
     inkscape:label="Layer 1"
     inkscape:groupmode="layer"
     id="layer1"
     transform="translate(0,-161.53331)">
    <g
       id="g870"
       transform="matrix(0.47144762,0,0,0.47190794,-0.19937381,161.10211)"
       style="stroke-width:0.56094092">
      <path
         id="path817"
         d="m 3.3,1 c 0,0 -5.7,55.3 2,75.7 7.7,20.4 20,21.3 20,21.3 0,0 61,-41 60.7,-39.7 -0.3,1.3 -1,-5 -8,-16.7 C 71,29.9 70.3,6.7 70.3,1"
         class="st0"
         inkscape:connector-curvature="0"
         style="fill:#ffffff;stroke:#000000;stroke-width:1.6828227;stroke-miterlimit:10" />
      <path
         id="path819"
         d="m 86.3,59.5 c 0,0 -9.1,-11.2 -38.4,6 C 18.6,82.7 22,95.6 25.4,97.9 c 3.4,2.3 11.1,5.6 41.1,-6.6 30,-12.2 19.8,-31.8 19.8,-31.8 z"
         class="st0"
         inkscape:connector-curvature="0"
         style="fill:#ffffff;stroke:#000000;stroke-width:1.6828227;stroke-miterlimit:10" />
      <path
         id="path821"
         d="m 45.4,100 c 0,0 74.4,-61 75.9,-61.7 1.5,-0.7 4.7,0 4.7,0 l -76,63.1 z"
         class="st0"
         inkscape:connector-curvature="0"
         style="fill:#ffffff;stroke:#000000;stroke-width:1.6828227;stroke-miterlimit:10" />
      <path
         id="path823"
         d="m 53.7,98 c 0,0 -2,-9.7 -6.3,-12.3 -4.3,-2.6 4,0 6.3,0 2.3,0 12.3,5.6 10.6,10.6 -1.7,5 -10,6.7 -16,3.7 -6,-3 5.4,-2 5.4,-2 z"
         class="st0"
         inkscape:connector-curvature="0"
         style="fill:#ffffff;stroke:#000000;stroke-width:1.6828227;stroke-miterlimit:10" />
      <path
         id="path825"
         d="m 74.7,70.3 c 0.7,1.7 7.5,8.6 3.8,9.6 -3.7,1 -2.4,9.5 4.9,7.6 C 90.7,85.6 93,76 86,72 79,68 74.7,70.3 74.7,70.3 Z"
         class="st0"
         inkscape:connector-curvature="0"
         style="fill:#ffffff;stroke:#000000;stroke-width:1.6828227;stroke-miterlimit:10" />
      <path
         id="path827"
         d="m 66.7,90.3 c 0,0 -1,-3.7 -3.7,-9.7 -2.7,-6 7,0 7,0 0,0 12,5.4 7.3,12.4 -4.7,7 -11,1.8 -12.8,0 -1.8,-1.8 -2.2,-4.3 2.2,-2.7 z"
         class="st0"
         inkscape:connector-curvature="0"
         style="fill:#ffffff;stroke:#000000;stroke-width:1.6828227;stroke-miterlimit:10" />
      <path
         id="path829"
         d="m 129.7,30 c 0,0 23.6,-6.1 58.9,35.7 35.3,41.7 94.3,31.8 95,31.6 0.7,-0.2 -16.3,11.5 -16.3,11.5 0,0 9.1,6.7 18.7,8.5 9.5,1.8 -56.4,26.4 -100.5,5.7 C 161.6,112.6 144.2,97.1 132.7,82 128.6,77 115.8,60 98,57.2 Z"
         class="st1"
         inkscape:connector-curvature="0"
         style="fill:#e42d40;stroke:#000000;stroke-width:1.6828227;stroke-miterlimit:10" />
      <path
         id="path831"
         d="m 136.7,41.6 c -1.8,2.3 -4.9,6.2 -9.7,10.8 -8.5,7 -1.3,8.9 2.4,6.1 2.2,-1.5 4.5,-3.1 4.5,-3.1 l 4.6,5.2 c 0,0 -1.9,2.3 -3.4,4.2 -4.7,4.6 0.9,6.8 4.5,3.3 1.8,-1.8 9.5,-9 12.9,-13.3 2.9,-2.4 0,-7.3 -4.5,-3.5 -2,1.3 -5.7,4.2 -5.7,4.2 0,0 -3.8,-4.3 -3.7,-4.5 0.1,-0.6 1.3,-1.5 1.9,-2.7 3.8,-7.9 -1.3,-9.8 -3.8,-6.7 z"
         class="st2"
         inkscape:connector-curvature="0"
         style="fill:#ffffff;stroke:#ffffff;stroke-width:0.14023525;stroke-miterlimit:10" />
      <path
         id="path833"
         d="m 157.7,60.7 c 2.8,-2.4 4.8,-2.1 6,-1.4 0.5,0.3 0.8,1.7 0.9,3.1 -1.3,8 -10.6,19.6 -11.5,20.3 -3.5,2.4 -6.9,0.2 -3.9,-2.9 1.6,-1.9 3.3,-3.6 3.3,-3.6 l -4.4,-2.6 c -6.9,5.5 -8.8,1.1 -5.5,-1.2 3.3,-2.6 11.3,-8.6 15.1,-11.7 z m -5.7,8.5 4.3,2.8 c 0,0 5,-7.6 3.1,-7.3 z"
         class="st2"
         inkscape:connector-curvature="0"
         style="fill:#ffffff;stroke:#ffffff;stroke-width:0.14023525;stroke-miterlimit:10" />
      <path
         id="path835"
         d="m 178.6,78.2 c 1.4,-1.5 1.9,-5.9 -3,-7.2 -6.6,-2.9 -13.9,7.4 -13.9,7.4 0,0 -3.5,5 -3.5,9.4 -0.1,4.3 3.7,6 4.4,6.4 4.8,0.7 4.6,-2.9 4,-3.2 -0.9,-0.5 -2.2,-0.9 -2.9,-2.1 -1.1,-2.2 0.7,-5.5 2,-7.2 2.3,-2.8 7.1,-8.2 9.5,-5.3 0.8,3 2.6,2.6 3.4,1.8 z"
         class="st2"
         inkscape:connector-curvature="0"
         style="fill:#ffffff;stroke:#ffffff;stroke-width:0.14023525;stroke-miterlimit:10" />
      <path
         id="path837"
         d="m 182.6,79.8 c -2.7,3 -2.9,7.2 -8.7,12.6 -1.4,1.3 -4.4,3.5 -4.8,3.9 -2.9,2.3 -0.5,5.4 5.4,1.9 1.4,-0.8 3.7,-3.4 3.7,-3.4 l 1.6,0.5 c 0,0 -1.3,6.5 -2.1,9.1 -0.8,2.6 3,5.9 5.2,1.1 0.6,-1.7 1,-4.2 1.2,-7.5 0,0 0.2,-2.4 -0.4,-3 0,0 7,-2.6 8.4,-4.3 1.3,-1.7 1.1,-3.5 -4.2,-2 -5.2,1.5 -6.1,2.3 -6.1,2.3 0,0 2.7,-3.6 3.9,-6.7 1.7,-2.9 -0.8,-6.8 -3.1,-4.5 z"
         class="st2"
         inkscape:connector-curvature="0"
         style="fill:#ffffff;stroke:#ffffff;stroke-width:0.14023525;stroke-miterlimit:10" />
      <path
         id="path839"
         d="m 200,93.4 c -2.3,0.8 -4.7,3.3 -6.5,7.9 -2.8,6.8 -1.6,11.8 3.5,13.1 5.1,1.4 5.5,-2.5 5.2,-2.8 -0.3,-0.3 -0.3,-0.7 -2.5,-0.8 -2.3,-0.1 -3.4,-1.6 -3.3,-5.1 0.1,-2.3 1.4,-6.5 3.8,-7.9 0.7,-0.4 1.2,-0.5 1.5,-0.5 1.1,-0.1 1.8,0.7 1.9,1 1.7,2.9 3.1,1.1 2.9,-1 -0.8,-3.2 -2.9,-4.7 -6.5,-3.9 z"
         class="st2"
         inkscape:connector-curvature="0"
         style="fill:#ffffff;stroke:#ffffff;stroke-width:0.14023525;stroke-miterlimit:10" />
      <path
         id="path841"
         d="m 209.7,100 c 1.1,-2.5 4.6,-3.4 3.1,2.7 -0.5,4.2 -2,11.8 -2.5,12.9 0,0 1.2,1.4 5.8,2.4 0,0 2,0.7 1.1,1.6 -0.9,1 -2,0.6 -2.2,0.6 -0.3,0 -10.6,-2.3 -10.2,-3.7 0.4,-1.4 1,-1.9 2.3,-6.2 1.1,-5.7 1.5,-7.8 2.6,-10.3 z"
         class="st2"
         inkscape:connector-curvature="0"
         style="fill:#ffffff;stroke:#ffffff;stroke-width:0.14023525;stroke-miterlimit:10" />
      <path
         id="path843"
         d="m 220.9,104.1 c 0.6,-1.9 3,-2.2 3.2,0.2 0.2,1.9 -1.8,9 -1.7,12.4 0.3,1.4 1.8,2.3 2.9,1.6 1.6,-1.3 2.7,-5.3 3.5,-8.8 0.3,-1.7 0.7,-2.9 1.2,-3.7 1.5,-2.7 3.6,-1 3.4,2.4 -0.6,3.6 -2.4,9.1 -3.6,10.7 -1.2,1.6 -2.7,3.6 -5.3,3.1 -0.7,-0.1 -6,-1.6 -5.3,-7.9 0.8,-6.1 1.1,-8.1 1.7,-10 z"
         class="st2"
         inkscape:connector-curvature="0"
         style="fill:#ffffff;stroke:#ffffff;stroke-width:0.14023525;stroke-miterlimit:10" />
      <path
         id="path845"
         d="m 239.4,105.2 c 3.9,-0.4 6.5,-0.1 8.1,1.4 0.8,1.1 0.6,3.2 -0.3,4.6 -0.9,1.1 -2,2 -2,2 1.7,1 1.6,2.9 1.6,2.9 -0.1,7.3 -4,6.9 -8.8,6.3 -1.5,-0.3 -3.1,-0.9 -2.9,-1.5 0.3,-1 1.9,-13.9 1.9,-13.9 0,-0.7 0,-1.7 2.4,-1.8 z m 0.3,2.6 -0.1,4.3 c 0,0 4.5,0.2 4.9,-2 0.5,-2.3 -2.4,-2.2 -4.8,-2.3 z m -0.7,7.3 c 0,0 -1,4.9 -0.8,4.6 0.1,-0.3 5.7,0.6 5.8,-2.7 0,-3.3 -5,-1.9 -5,-1.9 z"
         class="st2"
         inkscape:connector-curvature="0"
         style="fill:#ffffff;stroke:#ffffff;stroke-width:0.14023525;stroke-miterlimit:10" />
    </g>
  </g>
  <style
     id="style815"
     type="text/css">
	.st0{fill:#FFFFFF;stroke:#000000;stroke-width:3;stroke-miterlimit:10;}
	.st1{fill:#E42D40;stroke:#000000;stroke-width:3;stroke-miterlimit:10;}
	.st2{fill:#FFFFFF;stroke:#FFFFFF;stroke-width:0.25;stroke-miterlimit:10;}
</style>
</svg>
